<svg xmlns="http://www.w3.org/2000/svg" width="119.13" height="38.96" viewBox="0 0 119.13 38.96">
  <title>mrioarrows-poly</title>
  <path d="M0,11.11v-0.5C30.74,10,45.2,8,59.2,6.12a328.47,328.47,0,0,1,47.05-3.58l3.52,0,4.17,0V3l-4.17,0-3.52,0a328.07,328.07,0,0,0-47,3.58C45.26,8.52,30.78,10.49,0,11.11Z" transform="translate(0.25 -1.27)" style="fill: #231f20"/>
  <polygon points="113.22 2.9 118.63 1.4 113.19 0 113.22 2.9" style="fill: #231f20"/>
  <path d="M0,36.8V35.3c4.28,0,14-1.39,24.38-2.85,12.5-1.78,25.43-3.61,32.37-3.61h0c10.41,0,18.76,1.71,26.83,3.37,7.06,1.45,13.72,2.82,21.49,3l0,1.5c-7.89-.23-14.62-1.62-21.74-3.08C75.32,32,67,30.33,56.79,30.33h0c-6.84,0-20.29,1.91-32.16,3.6C14.2,35.41,4.39,36.8,0,36.8Z" transform="translate(0.25 -1.27)" style="fill: #231f20"/>
  <polygon points="102.32 38.97 118.63 34.78 102.41 30.25 102.32 38.97" style="fill: #231f20"/>
  <path d="M96.53,27.46c-24,0-37.43-3.74-48.4-6.81-7.26-2-13.53-3.78-21-3.78h0a92.26,92.26,0,0,0-15.68,1.37A69.92,69.92,0,0,1,0,19.34v-1a69.09,69.09,0,0,0,11.29-1.08,94.33,94.33,0,0,1,15.83-1.38h0c7.6,0,13.93,1.77,21.25,3.81,12,3.36,27,7.54,55.84,6.65,0.57,0,2.41,0,5.78,0v1c-3.31,0-5.19,0-5.74,0Q100.22,27.46,96.53,27.46Z" transform="translate(0.25 -1.27)" style="fill: #231f20"/>
  <polygon points="108.26 28.5 119.13 25.69 108.31 22.69 108.26 28.5" style="fill: #231f20"/>
  <path d="M96.28,18.21c-24,0-37.38-3.74-48.33-6.8-7.27-2-13.56-3.79-21.05-3.79h0A92.51,92.51,0,0,0,11.16,9,69.72,69.72,0,0,1-.25,10.09V9.59A69.31,69.31,0,0,0,11.08,8.5,94.11,94.11,0,0,1,26.88,7.13h0c7.56,0,13.88,1.76,21.19,3.81,12,3.36,27,7.55,55.91,6.66,1,0,5.71,0,9.51.07h0.69v0.5H113.5c-3.8,0-8.53-.1-9.49-0.07Q100,18.21,96.28,18.21Z" transform="translate(0.25 -1.27)" style="fill: #231f20"/>
  <polygon points="113.44 18.1 118.88 16.69 113.47 15.19 113.44 18.1" style="fill: #231f20"/>
  <path d="M27.13,27.21c-6.95,0-11.68-2.06-15.86-3.87-3.59-1.56-7-3-11.26-3V19.8c4.38,0,7.82,1.49,11.46,3.07,4.34,1.88,8.82,3.83,15.67,3.83s13.5-4.07,20-8,13.33-8.08,20.25-8.08c7.54,0,13.69,2.68,19.64,5.28,5.64,2.46,11,4.78,17.24,4.86l4.09,0,5.6,0.06v0.5l-5.6-.06-4.09,0c-6.38-.08-11.75-2.42-17.43-4.9-5.9-2.57-12-5.24-19.44-5.24-6.78,0-13.5,4.07-20,8S34,27.21,27.13,27.21Z" transform="translate(0.25 -1.27)" style="fill: #231f20"/>
  <polygon points="113.19 21.29 118.63 19.9 113.22 18.38 113.19 21.29" style="fill: #231f20"/>
</svg>
